<svg xmlns="http://www.w3.org/2000/svg" width="1600" height="1000" viewBox="0 0 1600 1000">
  <defs>
    <linearGradient id="base" x1="0" y1="0" x2="1" y2="1">
      <stop offset="0%" stop-color="#0a111a"/>
      <stop offset="45%" stop-color="#0e1a2a"/>
      <stop offset="100%" stop-color="#111f2f"/>
    </linearGradient>
    <radialGradient id="glowA" cx="20%" cy="18%" r="45%">
      <stop offset="0%" stop-color="#4c88ff" stop-opacity="0.55"/>
      <stop offset="60%" stop-color="#4c88ff" stop-opacity="0"/>
    </radialGradient>
    <radialGradient id="glowB" cx="85%" cy="20%" r="40%">
      <stop offset="0%" stop-color="#4fd6ff" stop-opacity="0.4"/>
      <stop offset="65%" stop-color="#4fd6ff" stop-opacity="0"/>
    </radialGradient>
    <radialGradient id="glowC" cx="45%" cy="85%" r="50%">
      <stop offset="0%" stop-color="#ffffff" stop-opacity="0.22"/>
      <stop offset="70%" stop-color="#ffffff" stop-opacity="0"/>
    </radialGradient>
    <filter id="soft" x="-20%" y="-20%" width="140%" height="140%">
      <feGaussianBlur stdDeviation="16"/>
    </filter>
  </defs>
  <rect width="1600" height="1000" fill="url(#base)"/>
  <rect width="1600" height="1000" fill="url(#glowA)"/>
  <rect width="1600" height="1000" fill="url(#glowB)"/>
  <rect width="1600" height="1000" fill="url(#glowC)"/>

  <g opacity="0.55" filter="url(#soft)">
    <rect x="80" y="160" width="520" height="260" rx="48" fill="#17314b"/>
    <rect x="980" y="120" width="480" height="280" rx="52" fill="#1b2f45"/>
    <rect x="240" y="520" width="1120" height="260" rx="64" fill="#162739"/>
  </g>

  <g opacity="0.35">
    <rect x="220" y="620" width="240" height="260" rx="40" fill="#bcd9ff"/>
    <rect x="500" y="600" width="180" height="280" rx="36" fill="#cfe7ff"/>
    <rect x="720" y="640" width="160" height="240" rx="34" fill="#b8d6ff"/>
    <rect x="1000" y="600" width="220" height="280" rx="38" fill="#c5e0ff"/>
    <rect x="1260" y="620" width="180" height="260" rx="34" fill="#b8d6ff"/>
  </g>

  <g opacity="0.28">
    <path d="M210 260 h120 v28 l-26 160 h-68 l-26-160 z" fill="#c7defd"/>
    <path d="M420 240 h90 v24 l-20 150 h-50 l-20-150 z" fill="#b8d6ff"/>
    <path d="M1140 250 h120 v28 l-26 160 h-68 l-26-160 z" fill="#c7defd"/>
    <path d="M1320 230 h90 v24 l-20 150 h-50 l-20-150 z" fill="#b8d6ff"/>
  </g>

  <g opacity="0.2">
    <rect x="140" y="480" width="520" height="14" rx="7" fill="#6c8fb5"/>
    <rect x="940" y="470" width="520" height="14" rx="7" fill="#6c8fb5"/>
  </g>
</svg>
